<svg width="375" height="317" viewBox="0 0 375 317" fill="none" xmlns="http://www.w3.org/2000/svg">
<path fill-rule="evenodd" clip-rule="evenodd" d="M284.696 250.541C295.109 209.602 301.555 153.018 301.555 90.5C301.555 27.9816 295.109 -28.6017 284.696 -69.5414C279.488 -90.0149 273.295 -106.549 266.437 -117.953C259.561 -129.387 252.108 -135.52 244.424 -135.52C236.739 -135.52 229.286 -129.387 222.41 -117.953C215.552 -106.549 209.359 -90.0149 204.151 -69.5414C193.738 -28.6017 187.292 27.9816 187.292 90.5C187.292 153.018 193.738 209.602 204.151 250.541C209.359 271.015 215.552 287.549 222.41 298.953C229.286 310.387 236.739 316.52 244.424 316.52C252.108 316.52 259.561 310.387 266.437 298.953C273.295 287.549 279.488 271.015 284.696 250.541ZM244.424 317C276.241 317 302.035 215.592 302.035 90.5C302.035 -34.5925 276.241 -136 244.424 -136C212.606 -136 186.812 -34.5925 186.812 90.5C186.812 215.592 212.606 317 244.424 317Z" fill="white" fill-opacity="0.2"/>
<path fill-rule="evenodd" clip-rule="evenodd" d="M269.526 294.434C269.448 294.581 269.371 294.728 269.293 294.874C284.384 309.057 301.288 317 319.139 317C382.92 317 434.625 215.592 434.625 90.5C434.625 -34.5925 382.92 -136 319.139 -136C301.288 -136 284.384 -128.057 269.293 -113.874C269.371 -113.728 269.448 -113.581 269.526 -113.434C284.571 -127.608 301.404 -135.52 319.139 -135.52C350.755 -135.52 379.501 -110.376 400.373 -69.4417C421.23 -28.5338 434.145 28.0134 434.145 90.5C434.145 152.987 421.23 209.534 400.373 250.442C379.501 291.376 350.755 316.52 319.139 316.52C301.404 316.52 284.571 308.608 269.526 294.434Z" fill="white" fill-opacity="0.2"/>
<path fill-rule="evenodd" clip-rule="evenodd" d="M88.9281 250.541C78.5149 209.602 72.0689 153.018 72.0689 90.5C72.0689 27.9816 78.5149 -28.6017 88.9281 -69.5414C94.1356 -90.0149 100.329 -106.549 107.187 -117.953C114.063 -129.387 121.516 -135.52 129.201 -135.52C136.885 -135.52 144.338 -129.387 151.214 -117.953C158.072 -106.549 164.265 -90.0149 169.473 -69.5414C179.886 -28.6017 186.332 27.9816 186.332 90.5C186.332 153.018 179.886 209.602 169.473 250.541C164.265 271.015 158.072 287.549 151.214 298.953C144.338 310.387 136.885 316.52 129.201 316.52C121.516 316.52 114.063 310.387 107.187 298.953C100.329 287.549 94.1356 271.015 88.9281 250.541ZM129.201 317C97.3826 317 71.589 215.592 71.589 90.5C71.589 -34.5925 97.3826 -136 129.201 -136C161.018 -136 186.812 -34.5925 186.812 90.5C186.812 215.592 161.018 317 129.201 317Z" fill="white" fill-opacity="0.2"/>
<path fill-rule="evenodd" clip-rule="evenodd" d="M104.099 294.434C104.177 294.581 104.254 294.728 104.332 294.874C89.2414 309.057 72.3366 317 54.4858 317C-9.29534 317 -61.0002 215.592 -61.0002 90.5C-61.0002 -34.5925 -9.29534 -136 54.4858 -136C72.3366 -136 89.2414 -128.057 104.332 -113.874C104.254 -113.728 104.177 -113.581 104.099 -113.434C89.0536 -127.608 72.2212 -135.52 54.4858 -135.52C22.87 -135.52 -5.8765 -110.376 -26.7476 -69.4417C-47.6054 -28.5338 -60.5203 28.0134 -60.5203 90.5C-60.5203 152.987 -47.6054 209.534 -26.7476 250.442C-5.8765 291.376 22.87 316.52 54.4858 316.52C72.2212 316.52 89.0536 308.608 104.099 294.434Z" fill="white" fill-opacity="0.2"/>
</svg>
