
<svg width="1440" height="1033" viewBox="0 0 1440 1033" fill="none" xmlns="http://www.w3.org/2000/svg">
<path fill-rule="evenodd" clip-rule="evenodd" d="M1098.89 1016.45C1098.41 1016.68 1097.94 1016.92 1097.46 1017.15C1129.83 1027.5 1163.74 1033 1198.66 1033C1425.12 1033 1608.71 801.755 1608.71 516.5C1608.71 231.245 1425.12 0 1198.66 0C1163.74 0 1129.83 5.5009 1097.46 15.8524C1097.94 16.084 1098.41 16.3181 1098.89 16.5545C1130.83 6.45588 1164.26 1.09428 1198.66 1.09428C1424.24 1.09428 1607.58 231.566 1607.58 516.5C1607.58 801.434 1424.24 1031.91 1198.66 1031.91C1164.26 1031.91 1130.83 1026.54 1098.89 1016.45Z" fill="white" fill-opacity="0.3"/>
<path fill-rule="evenodd" clip-rule="evenodd" d="M949.477 881.451C973.958 788.094 989.113 659.064 989.113 516.5C989.113 373.936 973.958 244.906 949.477 151.549C937.234 104.862 922.674 67.1587 906.551 41.1531C890.385 15.0794 872.862 1.09428 854.797 1.09428C836.731 1.09428 819.208 15.0794 803.043 41.1531C786.919 67.1587 772.359 104.862 760.117 151.549C735.635 244.906 720.481 373.936 720.481 516.5C720.481 659.064 735.635 788.094 760.117 881.451C772.359 928.138 786.919 965.841 803.043 991.847C819.208 1017.92 836.731 1031.91 854.797 1031.91C872.862 1031.91 890.385 1017.92 906.551 991.847C922.674 965.841 937.234 928.138 949.477 881.451ZM854.797 1033C929.601 1033 990.241 801.755 990.241 516.5C990.241 231.245 929.601 0 854.797 0C779.993 0 719.353 231.245 719.353 516.5C719.353 801.755 779.993 1033 854.797 1033Z" fill="white" fill-opacity="0.3"/>
<path fill-rule="evenodd" clip-rule="evenodd" d="M913.801 981.543C913.62 981.878 913.438 982.213 913.255 982.546C948.732 1014.89 988.475 1033 1030.44 1033C1180.39 1033 1301.95 801.755 1301.95 516.5C1301.95 231.245 1180.39 0 1030.44 0C988.475 0 948.732 18.1132 913.255 50.4542C913.438 50.7871 913.62 51.1215 913.801 51.4574C949.174 19.1372 988.746 1.09428 1030.44 1.09428C1104.77 1.09428 1172.35 58.4324 1221.42 151.776C1270.46 245.061 1300.82 374.009 1300.82 516.5C1300.82 658.991 1270.46 787.939 1221.42 881.224C1172.35 974.568 1104.77 1031.91 1030.44 1031.91C988.746 1031.91 949.174 1013.86 913.801 981.543Z" fill="white" fill-opacity="0.3"/>
<path fill-rule="evenodd" clip-rule="evenodd" d="M339.814 1016.45C340.293 1016.68 340.772 1016.92 341.251 1017.15C308.88 1027.5 274.972 1033 240.043 1033C13.5827 1033 -170 801.755 -170 516.5C-170 231.245 13.5827 0 240.043 0C274.972 0 308.88 5.50092 341.251 15.8525C340.772 16.0841 340.293 16.3181 339.814 16.5546C307.874 6.45589 274.45 1.09428 240.043 1.09428C14.4621 1.09428 -168.872 231.566 -168.872 516.5C-168.872 801.434 14.4621 1031.91 240.043 1031.91C274.45 1031.91 307.874 1026.54 339.814 1016.45Z" fill="white" fill-opacity="0.3"/>
<path fill-rule="evenodd" clip-rule="evenodd" d="M489.228 881.451C464.747 788.094 449.592 659.064 449.592 516.5C449.592 373.936 464.747 244.906 489.228 151.549C501.471 104.862 516.031 67.1587 532.154 41.1531C548.32 15.0794 565.843 1.09428 583.908 1.09428C601.974 1.09428 619.497 15.0794 635.662 41.1531C651.786 67.1587 666.346 104.862 678.588 151.549C703.07 244.906 718.224 373.936 718.224 516.5C718.224 659.064 703.07 788.094 678.588 881.451C666.346 928.138 651.786 965.841 635.662 991.847C619.497 1017.92 601.974 1031.91 583.908 1031.91C565.843 1031.91 548.32 1017.92 532.154 991.847C516.031 965.841 501.471 928.138 489.228 881.451ZM583.908 1033C509.105 1033 448.464 801.755 448.464 516.5C448.464 231.245 509.105 0 583.908 0C658.712 0 719.353 231.245 719.353 516.5C719.353 801.755 658.712 1033 583.908 1033Z" fill="white" fill-opacity="0.3"/>
<path fill-rule="evenodd" clip-rule="evenodd" d="M524.903 981.543C525.085 981.878 525.267 982.213 525.449 982.546C489.973 1014.89 450.23 1033 408.263 1033C258.314 1033 136.756 801.755 136.756 516.5C136.756 231.245 258.314 0 408.263 0C450.23 0 489.973 18.1132 525.449 50.4542C525.267 50.7871 525.085 51.1215 524.903 51.4574C489.531 19.1372 449.958 1.09428 408.263 1.09428C333.934 1.09428 266.352 58.4324 217.284 151.776C168.247 245.061 137.884 374.009 137.884 516.5C137.884 658.991 168.247 787.939 217.284 881.224C266.352 974.568 333.934 1031.91 408.263 1031.91C449.958 1031.91 489.531 1013.86 524.903 981.543Z" fill="white" fill-opacity="0.3"/>
</svg>
